<?xml version="1.0" encoding="iso-8859-1"?>
<!-- Uploaded to: SVG Repo, www.svgrepo.com, Generator: SVG Repo Mixer Tools -->
<svg height="800px" width="800px" version="1.1" id="Layer_1" xmlns="http://www.w3.org/2000/svg" xmlns:xlink="http://www.w3.org/1999/xlink" 
	 viewBox="0 0 511.999 511.999" xml:space="preserve">
<path style="fill:#666666;" d="M332.306,67.905c66.174,66.174,72.366,169.607,18.564,242.752
	c-5.545,7.552-11.738,14.774-18.564,21.6c-6.826,6.826-14.048,13.018-21.587,18.564c-73.145,53.803-176.591,47.61-242.765-18.564
	c-73-73-73-191.352,0-264.352S259.306-5.095,332.306,67.905z"/>
<path style="fill:#B3B3B3;" d="M293.717,106.494c46.855,46.855,51.239,120.091,13.144,171.882
	c-3.927,5.347-8.311,10.461-13.144,15.294c-4.834,4.834-9.947,9.217-15.285,13.144c-51.79,38.095-125.036,33.71-171.891-13.144
	c-51.687-51.687-51.687-135.487,0-187.176S242.03,54.805,293.717,106.494z"/>
<path style="fill:#A3875E;" d="M490.479,450.28c5.545,5.545,8.318,12.807,8.318,20.082c0,7.262-2.773,14.537-8.318,20.069
	c-11.077,11.091-29.06,11.091-40.151,0l-99.987-99.987l40.151-40.164L490.479,450.28z"/>
<path style="fill:#B3B3B3;" d="M390.492,350.28l-40.151,40.164h-0.013l-39.609-39.622c7.539-5.545,14.761-11.738,21.587-18.564
	c6.826-6.826,13.018-14.048,18.564-21.6L390.492,350.28z"/>
<path d="M315.774,147.932c-4.641,0-9.142-2.451-11.554-6.796c-0.256-0.461-0.522-0.933-0.797-1.394
	c-3.763-6.245-1.747-14.36,4.5-18.121c6.244-3.767,14.358-1.749,18.121,4.5c0.437,0.726,0.858,1.467,1.262,2.196
	c3.541,6.374,1.242,14.412-5.133,17.952C320.142,147.396,317.942,147.932,315.774,147.932z"/>
<path d="M314.745,146.136c-4.548,0-8.975-2.353-11.426-6.569l-0.698-1.201c-3.665-6.303-1.528-14.386,4.776-18.051
	c6.308-3.665,14.386-1.525,18.051,4.776l0.698,1.201c3.665,6.303,1.528,14.386-4.776,18.051
	C319.281,145.559,316.997,146.136,314.745,146.136z"/>
<path d="M338.717,244.203c8.718-27.382,9.529-55.856,2.346-82.338c-1.908-7.037-9.16-11.196-16.199-9.287
	c-7.037,1.908-11.195,9.16-9.287,16.199c11.895,43.859-4.286,94.683-39.348,123.595c-35.059,28.912-88.033,35.115-128.825,15.081
	c-40.791-20.03-68.272-65.743-66.83-111.163c1.442-45.42,31.768-89.298,73.746-106.701c41.979-17.402,94.456-7.855,127.611,23.222
	c5.32,4.987,13.677,4.715,18.663-0.603c4.987-5.321,4.716-13.676-0.603-18.663c-20.021-18.766-45.548-31.404-73.82-36.549
	c-28.273-5.144-56.615-2.309-81.962,8.2c-25.349,10.508-47.383,28.558-63.721,52.198c-16.339,23.639-25.434,50.631-26.306,78.057
	c-0.87,27.427,6.496,54.942,21.302,79.571c14.806,24.628,35.651,44.039,60.283,56.136c19.434,9.543,41.025,14.438,63.293,14.436
	c5.955,0,11.962-0.35,17.984-1.055c28.542-3.342,54.819-14.335,75.989-31.793C314.202,295.286,330.001,271.585,338.717,244.203z"/>
<path d="M304.326,141.323l0.594,1.03c2.447,4.238,6.884,6.608,11.45,6.608c2.238,0,4.508-0.57,6.584-1.769
	c6.316-3.645,8.483-11.719,4.839-18.034l-0.594-1.03c-3.645-6.316-11.722-8.486-18.034-4.839
	C302.847,126.933,300.682,135.008,304.326,141.323z"/>
<path d="M499.815,440.944l-99.975-99.988c-0.004-0.004-0.008-0.009-0.012-0.013l-31.845-31.845
	c23.641-36.353,34.887-79.726,31.765-123.374c-3.43-47.956-24.067-93.115-58.107-127.156c-78.03-78.029-204.995-78.029-283.024,0
	C20.817,96.368,0,146.624,0,200.081s20.817,103.713,58.616,141.513c34.042,34.04,79.201,54.677,127.163,58.107
	c4.783,0.342,9.556,0.511,14.325,0.511c38.743-0.001,76.688-11.219,109.059-32.27l31.826,31.837
	c0.048,0.048,0.102,0.088,0.151,0.136l99.851,99.852c7.858,7.857,18.305,12.185,29.416,12.185c11.116,0,21.561-4.329,29.395-12.176
	c7.865-7.845,12.196-18.292,12.196-29.415C512,459.249,507.672,448.801,499.815,440.944z M77.29,322.921
	c-32.812-32.812-50.883-76.438-50.883-122.84S44.477,110.053,77.29,77.242c67.736-67.734,177.949-67.734,245.68,0
	c60.178,60.176,67.6,157.159,17.263,225.591c-0.001,0.001-0.003,0.004-0.004,0.007c-0.001,0.001-0.001,0.001-0.003,0.003
	c-5.177,7.05-10.982,13.805-17.256,20.079c-6.264,6.265-13.018,12.073-20.075,17.263C234.458,390.524,137.469,383.102,77.29,322.921
	z M341.642,341.593c3.587-3.587,7.041-7.312,10.342-11.149l19.836,19.836l-21.487,21.495l-19.836-19.843
	C334.337,348.629,338.059,345.175,341.642,341.593z M481.138,481.1c-2.864,2.866-6.674,4.445-10.729,4.445
	c-4.057,0-7.874-1.582-10.745-4.452l-90.652-90.652l21.481-21.488l90.65,90.663c2.87,2.87,4.451,6.686,4.451,10.746
	C485.594,474.419,484.016,478.227,481.138,481.1z"/>
</svg>